<mxfile host="app.diagrams.net" agent="Mozilla/5.0 (Windows NT 10.0; Win64; x64) AppleWebKit/537.36 (KHTML, like Gecko) Chrome/123.0.0.0 Safari/537.36 OPR/109.0.0.0" version="24.7.6">
  <diagram name="Page-1" id="e7e014a7-5840-1c2e-5031-d8a46d1fe8dd">
    <mxGraphModel dx="968" dy="376" grid="1" gridSize="10" guides="1" tooltips="1" connect="1" arrows="1" fold="1" page="1" pageScale="1" pageWidth="1169" pageHeight="826" background="none" math="0" shadow="0">
      <root>
        <mxCell id="0" />
        <mxCell id="1" parent="0" />
        <mxCell id="5" value="ss" style="ellipse;shape=startState;fillColor=#000000;strokeColor=#ff0000;" parent="1" vertex="1">
          <mxGeometry x="130" y="40" width="30" height="30" as="geometry" />
        </mxCell>
        <mxCell id="6" value="" style="edgeStyle=elbowEdgeStyle;elbow=horizontal;verticalAlign=bottom;endArrow=open;endSize=8;strokeColor=#FF0000;endFill=1;rounded=0;entryX=0.5;entryY=0;entryDx=0;entryDy=0;" parent="1" source="5" target="kETFKb8yOWNyLw1JTbQq-47" edge="1">
          <mxGeometry as="geometry">
            <mxPoint x="145" y="150" as="targetPoint" />
          </mxGeometry>
        </mxCell>
        <mxCell id="kETFKb8yOWNyLw1JTbQq-55" style="edgeStyle=orthogonalEdgeStyle;rounded=0;orthogonalLoop=1;jettySize=auto;html=1;entryX=0;entryY=0.5;entryDx=0;entryDy=0;strokeColor=#ff0000;align=left;verticalAlign=top;fontFamily=Helvetica;fontSize=11;fontColor=default;labelBackgroundColor=default;endArrow=open;endSize=8;" edge="1" parent="1" source="kETFKb8yOWNyLw1JTbQq-47" target="kETFKb8yOWNyLw1JTbQq-52">
          <mxGeometry relative="1" as="geometry" />
        </mxCell>
        <mxCell id="kETFKb8yOWNyLw1JTbQq-47" value="Got User Input" style="rounded=1;whiteSpace=wrap;html=1;arcSize=40;fontColor=#000000;fillColor=#ffffc0;strokeColor=#ff0000;" vertex="1" parent="1">
          <mxGeometry x="85" y="170" width="120" height="40" as="geometry" />
        </mxCell>
        <mxCell id="kETFKb8yOWNyLw1JTbQq-82" style="edgeStyle=orthogonalEdgeStyle;rounded=0;orthogonalLoop=1;jettySize=auto;html=1;entryX=0;entryY=0.5;entryDx=0;entryDy=0;strokeColor=#ff0000;align=left;verticalAlign=top;fontFamily=Helvetica;fontSize=11;fontColor=default;labelBackgroundColor=default;endArrow=open;endSize=8;" edge="1" parent="1" source="kETFKb8yOWNyLw1JTbQq-52" target="kETFKb8yOWNyLw1JTbQq-60">
          <mxGeometry relative="1" as="geometry" />
        </mxCell>
        <mxCell id="kETFKb8yOWNyLw1JTbQq-99" value="Yes" style="edgeLabel;html=1;align=center;verticalAlign=middle;resizable=0;points=[];" vertex="1" connectable="0" parent="kETFKb8yOWNyLw1JTbQq-82">
          <mxGeometry x="-1" relative="1" as="geometry">
            <mxPoint x="10" y="-10" as="offset" />
          </mxGeometry>
        </mxCell>
        <mxCell id="kETFKb8yOWNyLw1JTbQq-86" style="edgeStyle=orthogonalEdgeStyle;rounded=0;orthogonalLoop=1;jettySize=auto;html=1;entryX=0.5;entryY=0;entryDx=0;entryDy=0;strokeColor=#ff0000;align=left;verticalAlign=top;fontFamily=Helvetica;fontSize=11;fontColor=default;labelBackgroundColor=default;endArrow=open;endSize=8;" edge="1" parent="1" source="kETFKb8yOWNyLw1JTbQq-52" target="kETFKb8yOWNyLw1JTbQq-63">
          <mxGeometry relative="1" as="geometry" />
        </mxCell>
        <mxCell id="kETFKb8yOWNyLw1JTbQq-89" value="No" style="edgeLabel;html=1;align=center;verticalAlign=middle;resizable=0;points=[];" vertex="1" connectable="0" parent="kETFKb8yOWNyLw1JTbQq-86">
          <mxGeometry x="-1" relative="1" as="geometry">
            <mxPoint x="10" y="5" as="offset" />
          </mxGeometry>
        </mxCell>
        <mxCell id="kETFKb8yOWNyLw1JTbQq-52" value="Changed any value?" style="rhombus;whiteSpace=wrap;html=1;fontColor=#000000;fillColor=#ffffc0;strokeColor=#ff0000;" vertex="1" parent="1">
          <mxGeometry x="265" y="150" width="130" height="80" as="geometry" />
        </mxCell>
        <mxCell id="kETFKb8yOWNyLw1JTbQq-121" style="edgeStyle=orthogonalEdgeStyle;rounded=0;orthogonalLoop=1;jettySize=auto;html=1;entryX=0.5;entryY=0;entryDx=0;entryDy=0;strokeColor=#ff0000;align=left;verticalAlign=top;fontFamily=Helvetica;fontSize=11;fontColor=default;labelBackgroundColor=default;endArrow=open;endSize=8;" edge="1" parent="1" source="kETFKb8yOWNyLw1JTbQq-56" target="kETFKb8yOWNyLw1JTbQq-116">
          <mxGeometry relative="1" as="geometry" />
        </mxCell>
        <mxCell id="kETFKb8yOWNyLw1JTbQq-56" value="Update type specific displays" style="rounded=1;whiteSpace=wrap;html=1;arcSize=40;fontColor=#000000;fillColor=#ffffc0;strokeColor=#ff0000;" vertex="1" parent="1">
          <mxGeometry x="650" y="170" width="120" height="40" as="geometry" />
        </mxCell>
        <mxCell id="kETFKb8yOWNyLw1JTbQq-58" value="Changed any value?" style="rhombus;whiteSpace=wrap;html=1;fontColor=#000000;fillColor=#ffffc0;strokeColor=#ff0000;" vertex="1" parent="1">
          <mxGeometry x="510" width="130" height="80" as="geometry" />
        </mxCell>
        <mxCell id="kETFKb8yOWNyLw1JTbQq-59" value="Activity" style="rounded=1;whiteSpace=wrap;html=1;arcSize=40;fontColor=#000000;fillColor=#ffffc0;strokeColor=#ff0000;" vertex="1" parent="1">
          <mxGeometry x="360" y="10" width="120" height="40" as="geometry" />
        </mxCell>
        <mxCell id="kETFKb8yOWNyLw1JTbQq-100" style="edgeStyle=orthogonalEdgeStyle;rounded=0;orthogonalLoop=1;jettySize=auto;html=1;entryX=0.5;entryY=0;entryDx=0;entryDy=0;strokeColor=#ff0000;align=left;verticalAlign=top;fontFamily=Helvetica;fontSize=11;fontColor=default;labelBackgroundColor=default;endArrow=open;endSize=8;" edge="1" parent="1" source="kETFKb8yOWNyLw1JTbQq-60" target="kETFKb8yOWNyLw1JTbQq-61">
          <mxGeometry relative="1" as="geometry" />
        </mxCell>
        <mxCell id="kETFKb8yOWNyLw1JTbQq-123" value="No" style="edgeLabel;html=1;align=center;verticalAlign=middle;resizable=0;points=[];" vertex="1" connectable="0" parent="kETFKb8yOWNyLw1JTbQq-100">
          <mxGeometry x="-1" y="1" relative="1" as="geometry">
            <mxPoint x="10" y="5" as="offset" />
          </mxGeometry>
        </mxCell>
        <mxCell id="kETFKb8yOWNyLw1JTbQq-101" value="" style="edgeStyle=orthogonalEdgeStyle;rounded=0;orthogonalLoop=1;jettySize=auto;html=1;align=left;verticalAlign=top;fontFamily=Helvetica;fontSize=11;fontColor=default;labelBackgroundColor=default;resizable=0;fillColor=none;gradientColor=none;strokeColor=#ff0000;endArrow=open;endSize=8;" edge="1" parent="1" source="kETFKb8yOWNyLw1JTbQq-60" target="kETFKb8yOWNyLw1JTbQq-56">
          <mxGeometry relative="1" as="geometry" />
        </mxCell>
        <mxCell id="kETFKb8yOWNyLw1JTbQq-125" value="Yes" style="edgeLabel;html=1;align=center;verticalAlign=middle;resizable=0;points=[];" vertex="1" connectable="0" parent="kETFKb8yOWNyLw1JTbQq-101">
          <mxGeometry x="-1" relative="1" as="geometry">
            <mxPoint x="10" y="-10" as="offset" />
          </mxGeometry>
        </mxCell>
        <mxCell id="kETFKb8yOWNyLw1JTbQq-60" value="Changed Item Type?" style="rhombus;whiteSpace=wrap;html=1;fontColor=#000000;fillColor=#ffffc0;strokeColor=#ff0000;" vertex="1" parent="1">
          <mxGeometry x="455" y="150" width="130" height="80" as="geometry" />
        </mxCell>
        <mxCell id="kETFKb8yOWNyLw1JTbQq-120" style="edgeStyle=orthogonalEdgeStyle;rounded=0;orthogonalLoop=1;jettySize=auto;html=1;entryX=0;entryY=0.5;entryDx=0;entryDy=0;strokeColor=#ff0000;align=left;verticalAlign=top;fontFamily=Helvetica;fontSize=11;fontColor=default;labelBackgroundColor=default;endArrow=open;endSize=8;" edge="1" parent="1" source="kETFKb8yOWNyLw1JTbQq-61" target="kETFKb8yOWNyLw1JTbQq-116">
          <mxGeometry relative="1" as="geometry" />
        </mxCell>
        <mxCell id="kETFKb8yOWNyLw1JTbQq-61" value="Update instance value" style="rounded=1;whiteSpace=wrap;html=1;arcSize=40;fontColor=#000000;fillColor=#ffffc0;strokeColor=#ff0000;" vertex="1" parent="1">
          <mxGeometry x="460" y="270" width="120" height="40" as="geometry" />
        </mxCell>
        <mxCell id="kETFKb8yOWNyLw1JTbQq-87" style="edgeStyle=orthogonalEdgeStyle;rounded=0;orthogonalLoop=1;jettySize=auto;html=1;entryX=0.5;entryY=0;entryDx=0;entryDy=0;strokeColor=#ff0000;align=left;verticalAlign=top;fontFamily=Helvetica;fontSize=11;fontColor=default;labelBackgroundColor=default;endArrow=open;endSize=8;" edge="1" parent="1" source="kETFKb8yOWNyLw1JTbQq-63" target="kETFKb8yOWNyLw1JTbQq-76">
          <mxGeometry relative="1" as="geometry" />
        </mxCell>
        <mxCell id="kETFKb8yOWNyLw1JTbQq-91" value="No" style="edgeLabel;html=1;align=center;verticalAlign=middle;resizable=0;points=[];" vertex="1" connectable="0" parent="kETFKb8yOWNyLw1JTbQq-87">
          <mxGeometry x="-1" relative="1" as="geometry">
            <mxPoint x="10" y="5" as="offset" />
          </mxGeometry>
        </mxCell>
        <mxCell id="kETFKb8yOWNyLw1JTbQq-106" value="" style="edgeStyle=orthogonalEdgeStyle;rounded=0;orthogonalLoop=1;jettySize=auto;html=1;strokeColor=#ff0000;align=left;verticalAlign=top;fontFamily=Helvetica;fontSize=11;fontColor=default;labelBackgroundColor=default;endArrow=open;endSize=8;" edge="1" parent="1" source="kETFKb8yOWNyLw1JTbQq-63" target="kETFKb8yOWNyLw1JTbQq-64">
          <mxGeometry relative="1" as="geometry" />
        </mxCell>
        <mxCell id="kETFKb8yOWNyLw1JTbQq-63" value="Changed Tab?" style="rhombus;whiteSpace=wrap;html=1;fontColor=#000000;fillColor=#ffffc0;strokeColor=#ff0000;" vertex="1" parent="1">
          <mxGeometry x="265" y="333" width="130" height="80" as="geometry" />
        </mxCell>
        <mxCell id="kETFKb8yOWNyLw1JTbQq-119" style="edgeStyle=orthogonalEdgeStyle;rounded=0;orthogonalLoop=1;jettySize=auto;html=1;entryX=0;entryY=0.5;entryDx=0;entryDy=0;strokeColor=#ff0000;align=left;verticalAlign=top;fontFamily=Helvetica;fontSize=11;fontColor=default;labelBackgroundColor=default;endArrow=open;endSize=8;" edge="1" parent="1" source="kETFKb8yOWNyLw1JTbQq-64" target="kETFKb8yOWNyLw1JTbQq-116">
          <mxGeometry relative="1" as="geometry" />
        </mxCell>
        <mxCell id="kETFKb8yOWNyLw1JTbQq-64" value="Hide old tab and display new one" style="rounded=1;whiteSpace=wrap;html=1;arcSize=40;fontColor=#000000;fillColor=#ffffc0;strokeColor=#ff0000;" vertex="1" parent="1">
          <mxGeometry x="460" y="353" width="120" height="40" as="geometry" />
        </mxCell>
        <mxCell id="kETFKb8yOWNyLw1JTbQq-95" style="edgeStyle=orthogonalEdgeStyle;rounded=0;orthogonalLoop=1;jettySize=auto;html=1;strokeColor=#ff0000;align=left;verticalAlign=top;fontFamily=Helvetica;fontSize=11;fontColor=default;labelBackgroundColor=default;endArrow=open;endSize=8;" edge="1" parent="1" source="kETFKb8yOWNyLw1JTbQq-65">
          <mxGeometry relative="1" as="geometry">
            <mxPoint x="330" y="700" as="targetPoint" />
          </mxGeometry>
        </mxCell>
        <mxCell id="kETFKb8yOWNyLw1JTbQq-98" value="No" style="edgeLabel;html=1;align=center;verticalAlign=middle;resizable=0;points=[];" vertex="1" connectable="0" parent="kETFKb8yOWNyLw1JTbQq-95">
          <mxGeometry x="-1" relative="1" as="geometry">
            <mxPoint x="10" y="5" as="offset" />
          </mxGeometry>
        </mxCell>
        <mxCell id="kETFKb8yOWNyLw1JTbQq-108" value="" style="edgeStyle=orthogonalEdgeStyle;rounded=0;orthogonalLoop=1;jettySize=auto;html=1;strokeColor=#ff0000;align=left;verticalAlign=top;fontFamily=Helvetica;fontSize=11;fontColor=default;labelBackgroundColor=default;endArrow=open;endSize=8;" edge="1" parent="1" source="kETFKb8yOWNyLw1JTbQq-65" target="kETFKb8yOWNyLw1JTbQq-70">
          <mxGeometry relative="1" as="geometry" />
        </mxCell>
        <mxCell id="kETFKb8yOWNyLw1JTbQq-65" value="Clicked Generate?" style="rhombus;whiteSpace=wrap;html=1;fontColor=#000000;fillColor=#ffffc0;strokeColor=#ff0000;" vertex="1" parent="1">
          <mxGeometry x="265" y="560" width="130" height="80" as="geometry" />
        </mxCell>
        <mxCell id="kETFKb8yOWNyLw1JTbQq-109" value="" style="edgeStyle=orthogonalEdgeStyle;rounded=0;orthogonalLoop=1;jettySize=auto;html=1;strokeColor=#ff0000;align=left;verticalAlign=top;fontFamily=Helvetica;fontSize=11;fontColor=default;labelBackgroundColor=default;endArrow=open;endSize=8;" edge="1" parent="1" source="kETFKb8yOWNyLw1JTbQq-70" target="kETFKb8yOWNyLw1JTbQq-74">
          <mxGeometry relative="1" as="geometry" />
        </mxCell>
        <mxCell id="kETFKb8yOWNyLw1JTbQq-70" value="Check if every mandatory field is filled and valid" style="rounded=1;whiteSpace=wrap;html=1;arcSize=40;fontColor=#000000;fillColor=#ffffc0;strokeColor=#ff0000;" vertex="1" parent="1">
          <mxGeometry x="460" y="580" width="120" height="40" as="geometry" />
        </mxCell>
        <mxCell id="kETFKb8yOWNyLw1JTbQq-110" value="" style="edgeStyle=orthogonalEdgeStyle;rounded=0;orthogonalLoop=1;jettySize=auto;html=1;strokeColor=#ff0000;align=left;verticalAlign=top;fontFamily=Helvetica;fontSize=11;fontColor=default;labelBackgroundColor=default;endArrow=open;endSize=8;" edge="1" parent="1" source="kETFKb8yOWNyLw1JTbQq-74" target="kETFKb8yOWNyLw1JTbQq-75">
          <mxGeometry relative="1" as="geometry" />
        </mxCell>
        <mxCell id="kETFKb8yOWNyLw1JTbQq-115" value="" style="edgeStyle=orthogonalEdgeStyle;rounded=0;orthogonalLoop=1;jettySize=auto;html=1;strokeColor=#ff0000;align=left;verticalAlign=top;fontFamily=Helvetica;fontSize=11;fontColor=default;labelBackgroundColor=default;endArrow=open;endSize=8;" edge="1" parent="1" source="kETFKb8yOWNyLw1JTbQq-74" target="kETFKb8yOWNyLw1JTbQq-114">
          <mxGeometry relative="1" as="geometry" />
        </mxCell>
        <mxCell id="kETFKb8yOWNyLw1JTbQq-74" value="Check true?" style="rhombus;whiteSpace=wrap;html=1;fontColor=#000000;fillColor=#ffffc0;strokeColor=#ff0000;" vertex="1" parent="1">
          <mxGeometry x="640" y="560" width="130" height="80" as="geometry" />
        </mxCell>
        <mxCell id="kETFKb8yOWNyLw1JTbQq-117" style="edgeStyle=orthogonalEdgeStyle;rounded=0;orthogonalLoop=1;jettySize=auto;html=1;entryX=0.5;entryY=1;entryDx=0;entryDy=0;strokeColor=#ff0000;align=left;verticalAlign=top;fontFamily=Helvetica;fontSize=11;fontColor=default;labelBackgroundColor=default;endArrow=open;endSize=8;" edge="1" parent="1" source="kETFKb8yOWNyLw1JTbQq-75" target="kETFKb8yOWNyLw1JTbQq-116">
          <mxGeometry relative="1" as="geometry" />
        </mxCell>
        <mxCell id="kETFKb8yOWNyLw1JTbQq-75" value="Generate instance" style="rounded=1;whiteSpace=wrap;html=1;arcSize=40;fontColor=#000000;fillColor=#ffffc0;strokeColor=#ff0000;" vertex="1" parent="1">
          <mxGeometry x="850" y="580" width="120" height="40" as="geometry" />
        </mxCell>
        <mxCell id="kETFKb8yOWNyLw1JTbQq-88" style="edgeStyle=orthogonalEdgeStyle;rounded=0;orthogonalLoop=1;jettySize=auto;html=1;entryX=0.5;entryY=0;entryDx=0;entryDy=0;strokeColor=#ff0000;align=left;verticalAlign=top;fontFamily=Helvetica;fontSize=11;fontColor=default;labelBackgroundColor=default;endArrow=open;endSize=8;" edge="1" parent="1" source="kETFKb8yOWNyLw1JTbQq-76" target="kETFKb8yOWNyLw1JTbQq-65">
          <mxGeometry relative="1" as="geometry" />
        </mxCell>
        <mxCell id="kETFKb8yOWNyLw1JTbQq-93" value="No" style="edgeLabel;html=1;align=center;verticalAlign=middle;resizable=0;points=[];fontFamily=Helvetica;fontSize=11;fontColor=default;labelBackgroundColor=default;fillColor=none;gradientColor=none;" vertex="1" connectable="0" parent="kETFKb8yOWNyLw1JTbQq-88">
          <mxGeometry x="-1" relative="1" as="geometry">
            <mxPoint x="10" y="5" as="offset" />
          </mxGeometry>
        </mxCell>
        <mxCell id="kETFKb8yOWNyLw1JTbQq-107" value="" style="edgeStyle=orthogonalEdgeStyle;rounded=0;orthogonalLoop=1;jettySize=auto;html=1;strokeColor=#ff0000;align=left;verticalAlign=top;fontFamily=Helvetica;fontSize=11;fontColor=default;labelBackgroundColor=default;endArrow=open;endSize=8;" edge="1" parent="1" source="kETFKb8yOWNyLw1JTbQq-76" target="kETFKb8yOWNyLw1JTbQq-77">
          <mxGeometry relative="1" as="geometry" />
        </mxCell>
        <mxCell id="kETFKb8yOWNyLw1JTbQq-76" value="Changed save path?" style="rhombus;whiteSpace=wrap;html=1;fontColor=#000000;fillColor=#ffffc0;strokeColor=#ff0000;" vertex="1" parent="1">
          <mxGeometry x="265" y="450" width="130" height="80" as="geometry" />
        </mxCell>
        <mxCell id="kETFKb8yOWNyLw1JTbQq-118" style="edgeStyle=orthogonalEdgeStyle;rounded=0;orthogonalLoop=1;jettySize=auto;html=1;entryX=0;entryY=0.5;entryDx=0;entryDy=0;strokeColor=#ff0000;align=left;verticalAlign=top;fontFamily=Helvetica;fontSize=11;fontColor=default;labelBackgroundColor=default;endArrow=open;endSize=8;" edge="1" parent="1" source="kETFKb8yOWNyLw1JTbQq-77" target="kETFKb8yOWNyLw1JTbQq-116">
          <mxGeometry relative="1" as="geometry" />
        </mxCell>
        <mxCell id="kETFKb8yOWNyLw1JTbQq-77" value="Update internal save path" style="rounded=1;whiteSpace=wrap;html=1;arcSize=40;fontColor=#000000;fillColor=#ffffc0;strokeColor=#ff0000;" vertex="1" parent="1">
          <mxGeometry x="460" y="470" width="120" height="40" as="geometry" />
        </mxCell>
        <mxCell id="kETFKb8yOWNyLw1JTbQq-96" value="Return to start" style="ellipse;html=1;shape=endState;fillColor=#000000;strokeColor=#ff0000;spacingRight=0;spacingLeft=120;" vertex="1" parent="1">
          <mxGeometry x="315" y="700" width="30" height="30" as="geometry" />
        </mxCell>
        <mxCell id="kETFKb8yOWNyLw1JTbQq-114" value="Return to start" style="ellipse;html=1;shape=endState;fillColor=#000000;strokeColor=#ff0000;spacingRight=0;spacingLeft=120;" vertex="1" parent="1">
          <mxGeometry x="690" y="690" width="30" height="30" as="geometry" />
        </mxCell>
        <mxCell id="kETFKb8yOWNyLw1JTbQq-116" value="Return to start" style="ellipse;html=1;shape=endState;fillColor=#000000;strokeColor=#ff0000;spacingRight=0;spacingLeft=120;" vertex="1" parent="1">
          <mxGeometry x="980" y="358" width="30" height="30" as="geometry" />
        </mxCell>
      </root>
    </mxGraphModel>
  </diagram>
</mxfile>
